# xmcd CD database file generated by Grip 3.0.5
# 
# Track frame offsets:
#       182
#       16587
#       39150
#       67490
# 
# Disc length: 1149 seconds
# 
# Revision: 2
# Processed by: cddbd v1.4PL0 Copyright (c) Steve Scherf et al.
# Submitted via: Grip 3.0.5
# 
DISCID=2a047b04
DTITLE=Die 3. Generation - Du bist der Sommer
DYEAR=1999
DGENRE=Blues
TTITLE0=Single Edit
TTITLE1=Juicy 8T
TTITLE2=Summer House
TTITLE3=Ice
EXTD=
EXTT0=
EXTT1=
EXTT2=
EXTT3=
PLAYORDER=
